<svg xmlns="http://www.w3.org/2000/svg" width="20" height="20" viewBox="0 0 20 20" fill="none">
    <g clip-path="url(#clip0_991_10590)">
        <path d="M10.4741 19.4515C13.0975 19.4515 15.4725 18.3881 17.1917 16.669C18.9108 14.9498 19.9742 12.5748 19.9742 9.95144C19.9742 7.32811 18.9108 4.9531 17.1917 3.23391C15.4725 1.51474 13.0975 0.451416 10.4741 0.451416C7.85081 0.451416 5.4758 1.51474 3.75661 3.23391C2.03745 4.9531 0.974121 7.32811 0.974121 9.95144C0.974121 12.5748 2.03745 14.9498 3.75661 16.669C5.4758 18.3881 7.85081 19.4515 10.4741 19.4515Z"
              fill="none"></path>
        <path d="M5.44482 9.95108L8.79776 13.304L15.5036 6.59814" stroke="#00CD65" stroke-width="1.99081"
              stroke-linecap="round" stroke-linejoin="round"></path>
    </g>
    <defs>
        <clipPath id="clip0_991_10590">
            <rect width="19" height="19" fill="white" transform="translate(0.974121 0.45166)"></rect>
        </clipPath>
    </defs>
</svg>